<?xml version="1.0" encoding="utf-8"?>
<!-- Generator: Adobe Illustrator 24.0.0, SVG Export Plug-In . SVG Version: 6.00 Build 0)  -->
<svg version="1.1" id="图层_1" xmlns="http://www.w3.org/2000/svg" xmlns:xlink="http://www.w3.org/1999/xlink" x="0px" y="0px"
	 viewBox="0 0 200 200" style="enable-background:new 0 0 200 200;" xml:space="preserve">
<style type="text/css">
	.st0{fill:#FFFFFF;}
	.st1{fill:#EA3939;}
</style>
<polygon class="st0" points="124,41.3 117.8,22.2 109.3,17.6 28.1,38.7 18.8,55.4 46,164.9 63.2,174 72.5,170.5 "/>
<path class="st1" d="M169.1,180.7H89.2c-7.3,0-13.2-5.9-13.2-13.2V59.9c0-7.3,5.9-13.2,13.2-13.2h79.9c7.3,0,13.2,5.9,13.2,13.2
	v107.6C182.3,174.8,176.4,180.7,169.1,180.7z"/>
<path d="M166,41.3H92.6c-12.1,0-22,9.9-22,22V166c0,12.1,9.9,22,22,22H166c12.1,0,22-9.9,22-22V63.3C188,51.2,178.1,41.3,166,41.3z
	 M177,166c0,2.9-1.2,5.7-3.2,7.8c-2.1,2.1-4.8,3.2-7.8,3.2H92.6c-2.9,0-5.7-1.2-7.8-3.2c-2.1-2.1-3.2-4.8-3.2-7.8V79.9l11.6,11.5
	c3,3,7.2,4.7,11.5,4.7h49.2c4.3,0,8.4-1.7,11.5-4.7L177,79.9V166L177,166z M177,64.1c-0.3,0.7-0.7,1.3-1.2,1.8l-18,17.9
	c-1,1-2.4,1.6-3.8,1.6h-49.2c-1.4,0-2.8-0.6-3.8-1.6L83,65.9c-0.5-0.5-0.9-1.1-1.2-1.8v-0.8c0-2.9,1.2-5.7,3.2-7.8
	c2.1-2.1,4.8-3.2,7.8-3.2H166c2.9,0,5.7,1.1,7.8,3.2c2.1,2.1,3.2,4.8,3.2,7.8V64.1L177,64.1L177,64.1L177,64.1z M47.3,70.6L25.2,58
	c-0.6-0.4-1.2-0.8-1.6-1.4l-0.2-0.8C22.6,53,23,50,24.5,47.5c1.4-2.5,3.8-4.4,6.7-5.1l70.9-19c2.8-0.8,5.8-0.4,8.3,1.1
	c2.5,1.4,4.4,3.8,5.1,6.7l0,0l0,0l2.4,10.3l11.5-0.2l-3.3-12.9c-3.1-11.7-15.3-18.7-27-15.6l-70.9,19C16.6,34.9,9.6,47,12.7,58.7
	l26.6,99.2c2.9,10.7,15.8,20.5,32.4,14.9l-1-10.6c-2.8,0.7-13.2,1-15.6-0.5c-2.5-1.4-4.4-3.8-5.1-6.7l-22.3-83L41.9,80
	c3.7,2.2,8.1,2.7,12.3,1.6l9.1-2.4V68l-11.9,3.2C50,71.5,48.5,71.3,47.3,70.6L47.3,70.6z"/>
<path d="M144.8,133.5c3.2-1.6,5.3-4.6,4.8-9.4c-0.6-6.6-6.1-8.9-13.3-9.5v-9.2h-5.6v9c-1.5,0-3,0-4.5,0.1v-9h-5.6v9.2
	c-2.1,0.1-4.5,0-11.3,0v6c4.4-0.1,6.8-0.4,7.3,2.5v25.2c-0.3,2.3-2.1,1.9-6.2,1.9l-1.1,6.7c10.3,0,11.3,0,11.3,0v7.9h5.6v-7.8
	c1.5,0,3,0,4.5,0v7.7h5.6v-7.9c9.4-0.5,15.7-2.9,16.6-11.8C153.5,137.9,150.2,134.7,144.8,133.5L144.8,133.5z M126.3,120.9
	c3.2,0,13.1-1,13.1,5.6c0,6.3-9.9,5.6-13.1,5.6C126.3,132.1,126.3,120.9,126.3,120.9z M126.3,150.1v-12.3c3.8,0,15.4-1.1,15.4,6.2
	C141.8,150.9,130.1,150.1,126.3,150.1L126.3,150.1z"/>
</svg>
